<svg xmlns="http://www.w3.org/2000/svg" viewBox="0 0 512 512" style="enable-background:new 0 0 512 512" xml:space="preserve">
  <path d="M115.573 118.67c-4.085-4.079-10.699-4.075-14.778.004l-3.306 3.308c-4.079 4.083-4.077 10.699.004 14.778a10.416 10.416 0 0 0 7.386 3.058c2.676 0 5.35-1.021 7.392-3.064l3.306-3.308c4.079-4.081 4.077-10.697-.004-14.776zm285.174 1.657c-4.082-4.079-10.697-4.079-14.778 0l-3.308 3.308c-4.08 4.081-4.08 10.698 0 14.778a10.418 10.418 0 0 0 7.388 3.061c2.675 0 5.348-1.021 7.39-3.061l3.308-3.308c4.08-4.081 4.08-10.697 0-14.778z"/>
  <path d="M474.844 83.492c-18.84-9.486-44.426-13.903-80.519-13.903H117.673c-36.093 0-61.678 4.418-80.519 13.903C12.501 95.904 0 116.974 0 146.115c0 30.921 8.811 64.649 23.568 90.224 18.502 32.064 45.363 49.723 75.635 49.723 30.641 0 64.293-15.57 92.327-42.719 25.779-24.964 41.795-55.436 43.642-82.578a22.405 22.405 0 0 1 20.833-14.127 22.405 22.405 0 0 1 20.824 14.108c1.841 27.147 17.859 57.628 43.643 82.598 28.035 27.147 61.687 42.719 92.327 42.719 30.272 0 57.133-17.658 75.635-49.723C503.189 210.765 512 177.036 512 146.115c0-29.141-12.501-50.211-37.156-62.623zM176.992 228.331c-23.817 23.063-52.897 36.833-77.789 36.833-12.363 0-23.324-4.057-32.844-10.902l116.32-116.321c4.08-4.08 4.08-10.697 0-14.778-4.081-4.079-10.696-4.079-14.778 0L51.274 239.791c-6.199-7.654-11.473-16.608-15.802-26.235l52.892-52.893c4.08-4.08 4.08-10.697 0-14.778-4.081-4.079-10.696-4.079-14.778 0l-45.999 46c-4.431-15.444-6.689-31.402-6.689-45.769 0-38.993 28.942-55.629 96.775-55.629 36.145 0 96.782 8.453 96.782 65.069 0 22.853-14.005 50.058-37.463 72.775zm79.012-102.592a43.271 43.271 0 0 0-23.575 6.964c-4.712-17.335-15.072-31.668-30.638-42.217H310.21c-15.567 10.549-25.917 24.885-30.631 42.217a43.277 43.277 0 0 0-23.575-6.964zm156.793 139.425c-16.773 0-35.444-6.258-53.127-17.392l114.469-114.468c4.08-4.08 4.08-10.697 0-14.778-4.08-4.078-10.695-4.079-14.778 0l-116.72 116.721a158.412 158.412 0 0 1-7.633-6.916 156.142 156.142 0 0 1-13.115-14.372l51.642-51.643c4.08-4.08 4.08-10.697 0-14.778-4.081-4.079-10.696-4.079-14.778 0l-48.875 48.876c-7.958-13.952-12.338-28.086-12.338-40.861 0-56.617 60.636-65.069 96.782-65.069 67.834 0 96.775 16.637 96.775 55.629.001 49.913-27.211 119.051-78.304 119.051zm12.873 95.688c-2.412-3.268-6.174-5.143-10.325-5.143-3.621 0-7.244 1.343-11.401 4.226-5.925 4.11-6.409 4.445-16.57 4.445-10.488 0-20.786-7.156-32.711-15.444-15.536-10.796-33.144-23.033-56.984-23.033-9.987 0-24.863 2.849-41.7 15.486-16.836-12.637-31.712-15.486-41.7-15.486-23.839 0-41.448 12.237-56.984 23.033-11.924 8.286-22.223 15.444-32.711 15.444-10.16 0-10.644-.335-16.57-4.445-4.157-2.883-7.78-4.226-11.401-4.226-4.15 0-7.913 1.875-10.326 5.143-3.936 5.335-2.739 11.919-1.674 15.368.055.179.115.355.18.531 10.044 27.264 44.308 65.66 89.04 65.66 36.097 0 62.539-8.76 82.145-27.412 19.604 18.65 46.048 27.412 82.145 27.412 44.731 0 78.995-38.396 89.04-65.66.065-.176.124-.352.179-.531 1.066-3.448 2.265-10.032-1.672-15.368zm-87.545 60.662c-35.044 0-57.888-8.783-74.072-28.482a10.45 10.45 0 0 0-16.148 0c-16.184 19.698-39.028 28.482-74.072 28.482-28.199 0-49.764-20.06-61.322-36.965 3.243.526 7.071.729 12.073.729 17.037 0 31.068-9.751 44.636-19.18 14.28-9.923 27.766-19.296 45.058-19.296 7.711 0 20 2.758 34.751 15.893a10.446 10.446 0 0 0 13.898 0c14.751-13.135 27.04-15.893 34.751-15.893 17.292 0 30.779 9.373 45.058 19.296 13.569 9.429 27.6 19.18 44.636 19.18 5.002 0 8.83-.204 12.073-.729-11.557 16.905-33.123 36.965-61.32 36.965z"/>
</svg>
